/* XPM */
static char * codetch_main_xpm[] = {
"32 32 579 2",
"  	c None",
". 	c #1E2134",
"+ 	c #191D40",
"@ 	c #151C4C",
"# 	c #141D5C",
"$ 	c #141E66",
"% 	c #151E67",
"& 	c #151E60",
"* 	c #151C50",
"= 	c #171C43",
"- 	c #1D2036",
"; 	c #1C1F3A",
"> 	c #151C54",
", 	c #1B277B",
"' 	c #2C3C99",
") 	c #4858AD",
"! 	c #5A6BB8",
"~ 	c #6272BC",
"{ 	c #6172BC",
"] 	c #5A6CB9",
"^ 	c #4D5EB0",
"/ 	c #3747A0",
"( 	c #222F85",
"_ 	c #161F60",
": 	c #1A1D3F",
"< 	c #1F2235",
"[ 	c #131B55",
"} 	c #1F2D8B",
"| 	c #4F60B2",
"1 	c #8291CA",
"2 	c #A1AED5",
"3 	c #B1BDDC",
"4 	c #B9C3DF",
"5 	c #BAC4DF",
"6 	c #B2BEDC",
"7 	c #A4B2D7",
"8 	c #8FA0D0",
"9 	c #7D90C8",
"0 	c #7385C4",
"a 	c #5B6CB9",
"b 	c #2D3C98",
"c 	c #131C64",
"d 	c #1D203A",
"e 	c #1D2039",
"f 	c #131E70",
"g 	c #3A4BA8",
"h 	c #8694CA",
"i 	c #B4BEDC",
"j 	c #C3CCE2",
"k 	c #C2CCE3",
"l 	c #B9C6E0",
"m 	c #A8B9DB",
"n 	c #9BB0D7",
"o 	c #92A9D5",
"p 	c #8CA3D3",
"q 	c #869ED0",
"r 	c #7A94CB",
"s 	c #758DC8",
"t 	c #768CC6",
"u 	c #7385C3",
"v 	c #4E5FB3",
"w 	c #1B2883",
"x 	c #191E43",
"y 	c #1B1F3F",
"z 	c #152380",
"A 	c #5668B7",
"B 	c #A5B1D6",
"C 	c #C1CBE2",
"D 	c #BCC8E1",
"E 	c #A2B5DA",
"F 	c #86A1D2",
"G 	c #7A99CF",
"H 	c #7495CE",
"I 	c #7494CE",
"J 	c #7595CE",
"K 	c #7593CC",
"L 	c #7390CA",
"M 	c #718BC7",
"N 	c #7186C3",
"O 	c #5A6DB7",
"P 	c #1C2C8E",
"Q 	c #161C4E",
"R 	c #16237F",
"S 	c #5466B6",
"T 	c #ABB7D8",
"U 	c #A3B6DA",
"V 	c #7E9ACF",
"W 	c #6F91CC",
"X 	c #7194CE",
"Y 	c #6F93CD",
"Z 	c #7093CE",
"` 	c #7597D0",
" .	c #7497D0",
"..	c #7496CF",
"+.	c #7093CD",
"@.	c #6989C8",
"#.	c #6480C1",
"$.	c #687FBC",
"%.	c #909DC8",
"&.	c #909BC8",
"*.	c #1C2A88",
"=.	c #181D45",
"-.	c #202235",
";.	c #141F70",
">.	c #485BB0",
",.	c #A3B0D5",
"'.	c #B5C2DE",
").	c #859FD1",
"!.	c #6B8DCA",
"~.	c #6C90CC",
"{.	c #6689C8",
"].	c #7E99CF",
"^.	c #839ED2",
"/.	c #6B8ECB",
"(.	c #7094CE",
"_.	c #6D91CD",
":.	c #6182C4",
"<.	c #95A6D3",
"[.	c #C6CEE6",
"}.	c #E8EAF4",
"|.	c #FFFFFF",
"1.	c #9AA3CB",
"2.	c #14227F",
"3.	c #1C203E",
"4.	c #151C55",
"5.	c #2B3EA1",
"6.	c #8898CA",
"7.	c #B0BEDC",
"8.	c #7391CB",
"9.	c #6589C8",
"0.	c #6B8FCB",
"a.	c #6C91CD",
"b.	c #6285C7",
"c.	c #8398CD",
"d.	c #F1F3F9",
"e.	c #E3E7F3",
"f.	c #6180C2",
"g.	c #6082C5",
"h.	c #6E89C6",
"i.	c #94A6D3",
"j.	c #C6CEE7",
"k.	c #F1F2F8",
"l.	c #F1F3F7",
"m.	c #4254A8",
"n.	c #121D6E",
"o.	c #202234",
"p.	c #1E203B",
"q.	c #192787",
"r.	c #586CB7",
"s.	c #9BACD4",
"t.	c #6C8BC8",
"u.	c #6287C7",
"v.	c #678CCA",
"w.	c #678DCB",
"x.	c #6188C9",
"y.	c #869FD1",
"z.	c #F9FAFC",
"A.	c #899CCE",
"B.	c #BBC7E4",
"C.	c #F2F4F9",
"D.	c #A3AED2",
"E.	c #5067B0",
"F.	c #28399C",
"G.	c #191E47",
"H.	c #171E54",
"I.	c #3145A4",
"J.	c #7085C1",
"K.	c #6B88C6",
"L.	c #5C81C5",
"M.	c #6389C8",
"N.	c #638AC9",
"O.	c #5D85C7",
"P.	c #8099CE",
"Q.	c #CED4E9",
"R.	c #B2BBDD",
"S.	c #E2E4F1",
"T.	c #E4E6F2",
"U.	c #E9EBF5",
"V.	c #5973B7",
"W.	c #5772BA",
"X.	c #4459AF",
"Y.	c #16206F",
"Z.	c #202333",
"`.	c #242435",
" +	c #172377",
".+	c #465DB0",
"++	c #5A76BC",
"@+	c #5A7CC2",
"#+	c #5E84C6",
"$+	c #6087C8",
"%+	c #5F87C8",
"&+	c #5275BE",
"*+	c #CAD2E8",
"=+	c #FBFBFD",
"-+	c #687DBE",
";+	c #BAC5E3",
">+	c #E1E5F2",
",+	c #B5C1E0",
"'+	c #7C91C9",
")+	c #5D72B8",
"!+	c #E8E9F4",
"~+	c #94A4D2",
"{+	c #4F72BB",
"]+	c #5776BD",
"^+	c #5067B4",
"/+	c #1D2D8E",
"(+	c #1C203F",
"_+	c #1E203F",
":+	c #1D2E90",
"<+	c #4C65B3",
"[+	c #5272BB",
"}+	c #587EC3",
"|+	c #5B83C6",
"1+	c #5C84C7",
"2+	c #5C85C7",
"3+	c #527BC2",
"4+	c #7A90C9",
"5+	c #B7C1E0",
"6+	c #4567B6",
"7+	c #577BC0",
"8+	c #4E75BE",
"9+	c #4369B7",
"0+	c #AEBADD",
"a+	c #E4E7F3",
"b+	c #5474BC",
"c+	c #5A80C4",
"d+	c #5778BF",
"e+	c #526CB7",
"f+	c #2C40A1",
"g+	c #181E52",
"h+	c #191E4C",
"i+	c #26399C",
"j+	c #4C67B4",
"k+	c #5173BC",
"l+	c #567DC3",
"m+	c #5882C6",
"n+	c #5982C6",
"o+	c #5680C5",
"p+	c #557FC5",
"q+	c #4C6FBA",
"r+	c #D4D9EC",
"s+	c #F7F8FB",
"t+	c #627EC1",
"u+	c #547EC4",
"v+	c #527CC3",
"w+	c #6582C3",
"x+	c #F8F8FB",
"y+	c #8B9ECF",
"z+	c #3E69B9",
"A+	c #4B76C0",
"B+	c #466DBA",
"C+	c #4161B1",
"D+	c #2C43A4",
"E+	c #151F68",
"F+	c #171E5B",
"G+	c #2E43A4",
"H+	c #4967B4",
"I+	c #4F73BC",
"J+	c #537CC2",
"K+	c #5580C5",
"L+	c #537DC4",
"M+	c #5B81C4",
"N+	c #6084C5",
"O+	c #4E79C1",
"P+	c #4A73BE",
"Q+	c #8196CB",
"R+	c #A7B4DA",
"S+	c #315EB3",
"T+	c #2B5CB3",
"U+	c #AEBDDF",
"V+	c #DADEEF",
"W+	c #2B53AD",
"X+	c #3265B8",
"Y+	c #3364B8",
"Z+	c #2E5BB2",
"`+	c #274CA8",
" @	c #1B369D",
".@	c #152173",
"+@	c #202236",
"@@	c #151E64",
"#@	c #2F45A5",
"$@	c #4665B3",
"%@	c #4C71BC",
"&@	c #517AC2",
"*@	c #527DC3",
"=@	c #537EC4",
"-@	c #426BBA",
";@	c #AFBDDF",
">@	c #E9ECF6",
",@	c #5979BF",
"'@	c #4A75BF",
")@	c #EEEFF7",
"!@	c #385DB1",
"~@	c #2759B2",
"{@	c #7790CA",
"]@	c #738AC6",
"^@	c #2657B0",
"/@	c #3769BB",
"(@	c #3566B9",
"_@	c #315DB3",
":@	c #294FAA",
"<@	c #1D399E",
"[@	c #152279",
"}@	c #1E2136",
"|@	c #151F65",
"1@	c #2D43A4",
"2@	c #4362B2",
"3@	c #496FBB",
"4@	c #4E78C1",
"5@	c #4F7BC3",
"6@	c #4975C0",
"7@	c #5976BD",
"8@	c #F4F5FA",
"9@	c #D4DBEE",
"0@	c #476FBC",
"a@	c #2D5BB2",
"b@	c #879ACD",
"c@	c #7F93CA",
"d@	c #2555AF",
"e@	c #2554AE",
"f@	c #8FA4D3",
"g@	c #CDD6EB",
"h@	c #2C58B0",
"i@	c #3466B9",
"j@	c #3668BA",
"k@	c #161E5E",
"l@	c #293FA1",
"m@	c #4260B1",
"n@	c #476DBA",
"o@	c #4C77C0",
"p@	c #3B65B6",
"q@	c #ADB9DC",
"r@	c #DEE3F1",
"s@	c #325EB3",
"t@	c #2F62B7",
"u@	c #385CB0",
"v@	c #EEF0F7",
"w@	c #DADFEF",
"x@	c #2B54AD",
"y@	c #3365B8",
"z@	c #3060B5",
"A@	c #3765B8",
"B@	c #305DB3",
"C@	c #294EA9",
"D@	c #1C389E",
"E@	c #152275",
"F@	c #1F2135",
"G@	c #1A2050",
"H@	c #1C3199",
"I@	c #3251A9",
"J@	c #3960B3",
"K@	c #3D6ABA",
"L@	c #3665B8",
"M@	c #506FB9",
"N@	c #F8F9FB",
"O@	c #788EC8",
"P@	c #2759B1",
"Q@	c #3568BA",
"R@	c #1E4EAB",
"S@	c #96A6D3",
"T@	c #7087C4",
"U@	c #2758B1",
"V@	c #3669BB",
"W@	c #3467BA",
"X@	c #3465B8",
"Y@	c #2F5BB1",
"Z@	c #274CA7",
"`@	c #1A349C",
" #	c #16206C",
".#	c #1C2144",
"+#	c #14268F",
"@#	c #2140A0",
"##	c #2B53AC",
"$#	c #3260B5",
"%#	c #204EAB",
"&#	c #ACB8DC",
"*#	c #D6DBED",
"=#	c #1E46A6",
"-#	c #2150AC",
";#	c #375FB2",
">#	c #446AB8",
",#	c #3656AC",
"'#	c #FAFAFC",
")#	c #D0D6EB",
"!#	c #2953AD",
"~#	c #3363B7",
"{#	c #2E58AF",
"]#	c #2547A4",
"^#	c #172E99",
"/#	c #192059",
"(#	c #202237",
"_#	c #14227C",
":#	c #1E399E",
"<#	c #2855AE",
"[#	c #4565B2",
"}#	c #F5F6FA",
"|#	c #FAFAFD",
"1#	c #6676B9",
"2#	c #5D75BA",
"3#	c #ABB8DC",
"4#	c #E2E6F2",
"5#	c #F4F6FA",
"6#	c #5169B4",
"7#	c #A9B3D9",
"8#	c #607CBF",
"9#	c #2A5CB4",
"0#	c #3669BA",
"a#	c #2241A0",
"b#	c #14278F",
"c#	c #1D2043",
"d#	c #18205E",
"e#	c #18309A",
"f#	c #2547A5",
"g#	c #1A409F",
"h#	c #ABB6D9",
"i#	c #E7E8F3",
"j#	c #F2F3F9",
"k#	c #687CBD",
"l#	c #BCC7E3",
"m#	c #2A58B1",
"n#	c #3667B9",
"o#	c #3464B7",
"p#	c #305BB2",
"q#	c #284DA9",
"r#	c #142177",
"s#	c #1F2133",
"t#	c #21213F",
"u#	c #13258C",
"v#	c #183599",
"w#	c #4C64AC",
"x#	c #F9F9FC",
"y#	c #E5E8F3",
"z#	c #B3C0E1",
"A#	c #BFC8E4",
"B#	c #CBD4EA",
"C#	c #305EB4",
"D#	c #3667BA",
"E#	c #3565B8",
"F#	c #315EB4",
"G#	c #2E59B2",
"H#	c #2344A3",
"I#	c #152A95",
"J#	c #1A2051",
"K#	c #2C1B26",
"L#	c #171F63",
"M#	c #082090",
"N#	c #8D9AC6",
"O#	c #E4E7F2",
"P#	c #617CBF",
"Q#	c #335AB0",
"R#	c #2554AF",
"S#	c #2556B0",
"T#	c #6380C1",
"U#	c #C0C9E4",
"V#	c #355DB1",
"W#	c #3163B7",
"X#	c #305DB4",
"Y#	c #2B52AF",
"Z#	c #1A349B",
"`#	c #14217A",
" $	c #2A1F34",
".$	c #101E7B",
"+$	c #253A94",
"@$	c #D2D7E7",
"#$	c #D6DBEB",
"$$	c #A5B2D8",
"%$	c #5E79BD",
"&$	c #335AAF",
"*$	c #2351AD",
"=$	c #2A5CB3",
"-$	c #3365B9",
";$	c #3567BA",
">$	c #3462B6",
",$	c #7996CE",
"'$	c #335EB2",
")$	c #2F60B6",
"!$	c #315FB6",
"~$	c #2E58B5",
"{$	c #203DA1",
"]$	c #13248D",
"^$	c #1C2047",
"/$	c #232140",
"($	c #0B1C83",
"_$	c #2A3F98",
":$	c #4B62AA",
"<$	c #22449F",
"[$	c #1F4AA7",
"}$	c #2958B1",
"|$	c #3264B7",
"1$	c #2C5FB6",
"2$	c #3260B7",
"3$	c #2E59B6",
"4$	c #2141A4",
"5$	c #142793",
"6$	c #192055",
"7$	c #2B1319",
"8$	c #1C204E",
"9$	c #0F2088",
"0$	c #142F98",
"a$	c #2445A3",
"b$	c #2B52AB",
"c$	c #2F5AB1",
"d$	c #315FB4",
"e$	c #3362B6",
"f$	c #3566B8",
"g$	c #3260B6",
"h$	c #325FB8",
"i$	c #2C55B4",
"j$	c #2140A6",
"k$	c #181F60",
"l$	c #1F2130",
"m$	c #271319",
"n$	c #212042",
"o$	c #132282",
"p$	c #203E9F",
"q$	c #264AA6",
"r$	c #2A51AB",
"s$	c #2D56AE",
"t$	c #2F5AB0",
"u$	c #305CB2",
"v$	c #305DB2",
"w$	c #315EB5",
"x$	c #305DB7",
"y$	c #274BAF",
"z$	c #1C37A2",
"A$	c #13248C",
"B$	c #1A1F54",
"C$	c #1E202F",
"D$	c #1B0F14",
"E$	c #2A1E35",
"F$	c #151F6B",
"G$	c #142791",
"H$	c #1A339C",
"I$	c #2446A4",
"J$	c #284CA9",
"K$	c #2A51AD",
"L$	c #2C54B0",
"M$	c #2D56B2",
"N$	c #2D57B4",
"O$	c #2D56B4",
"P$	c #2B52B3",
"Q$	c #2649AE",
"R$	c #1F3CA7",
"S$	c #162B98",
"T$	c #132078",
"U$	c #1B1F46",
"V$	c #271820",
"W$	c #241F42",
"X$	c #16206B",
"Y$	c #142489",
"Z$	c #162C97",
"`$	c #1A339E",
" %	c #1D3AA3",
".%	c #203EA7",
"+%	c #203FA8",
"@%	c #1F3DA7",
"#%	c #1C38A3",
"$%	c #18309C",
"%%	c #142790",
"&%	c #152075",
"*%	c #1B204F",
"=%	c #1C1E2F",
"-%	c #1D1822",
";%	c #241E36",
">%	c #171F65",
",%	c #152171",
"'%	c #152175",
")%	c #152176",
"!%	c #152172",
"~%	c #161F69",
"{%	c #191F56",
"]%	c #1D1F3F",
"^%	c #1B1D2C",
"/%	c #161823",
"(%	c #191A2A",
"_%	c #1A1B2D",
":%	c #1A1C2D",
"<%	c #191B2B",
"[%	c #181A27",
"                                                                ",
"                      . + @ # $ % & * = -                       ",
"                  ; > , ' ) ! ~ { ] ^ / ( _ :                   ",
"              < [ } | 1 2 3 4 5 6 7 8 9 0 a b c d               ",
"            e f g h i j k l m n o p q r s t u v w x             ",
"          y z A B C D E F G H I H J J J K L M N O P Q           ",
"        e R S T C U V W X Y Z `  . . ...+.@.#.$.%.&.*.=.        ",
"      -.;.>.,.'.).!.~.Z {.].^./.(._.{.:.M <.[.}.|.|.1.2.3.      ",
"      4.5.6.7.8.9.0.a.b.c.d.e.f.g.h.i.j.k.|.|.|.|.|.l.m.n.o.    ",
"    p.q.r.s.t.u.v.w.x.y.z.|.|.A.B.C.|.|.|.|.|.|.|.|.D.E.F.G.    ",
"    H.I.J.K.L.M.N.N.O.P.|.|.|.Q.R.|.|.|.|.S.T.|.|.U.V.W.X.Y.Z.  ",
"  `. +.+++@+#+$+$+$+%+&+*+|.|.=+-+;+>+,+'+)+!+|.|.~+{+]+^+/+(+  ",
"  _+:+<+[+}+|+1+1+1+2+3+4+|.|.|.5+6+7+8+9+0+|.|.a+b+c+d+e+f+g+  ",
"  h+i+j+k+l+m+m+n+o+p+m+q+r+|.|.s+t+u+v+w+x+|.|.y+z+A+B+C+D+E+  ",
"  F+G+H+I+J+K+K+L+M+N+O+P+Q+|.|.|.R+S+T+U+|.|.V+W+X+Y+Z+`+ @.@+@",
"  @@#@$@%@&@*@=@-@;@>@,@'@k+U.|.|.)@!@~@{@|.|.]@^@/@(@_@:@<@[@}@",
"  |@1@2@3@4@5@6@7@8@|.9@0@a@b@|.|.|.c@d@e@f@g@h@i@j@(@_@:@<@[@}@",
"  k@l@m@n@o@5@p@q@|.|.r@s@t@u@v@|.|.w@x@y@z@A@Y+j@j@(@B@C@D@E@F@",
"  G@H@I@J@K@L@M@N@|.|.O@P@Q@R@S@|.|.|.T@U@V@W@j@j@j@X@Y@Z@`@ #  ",
"  .#+#@###$#%#&#|.|.*#=#-#;#>#,#'#|.|.)#!#Q@j@j@j@j@~#{#]#^#/#  ",
"  (#_#:#:@<#[#}#|.|#1#2#3#4#5#6#7#|.|.|.8#9#0#j@j@(@$###a#b#c#  ",
"    d#e#f#g#h#|.|.'#i#|.|.|.|.j#k#=+|.|.l#m#0#j@n#o#p#q# @r#s#  ",
"    t#u#v#w#x#|.|.|.|.|.|.|.y#z#u@A#|.|.B#C#Q@D#E#F#G#H#I#J#    ",
"    K#L#M#N#|.|.|.|.|.O#R+P#Q#R#S#T#|.U#V#W#j@E#$#X#Y#Z#`#F@    ",
"       $.$+$@$|.#$$$%$&$*$=$-$0#;$>$,$'$)$j@X@$#!$~${$]$^$      ",
"        /$($_$:$<$[$}$|$j@0#j@j@0#;$1$i@(@~#$#2$3$4$5$6$        ",
"        7$8$9$0$a$b$c$d$e$o#E#(@(@f$o#e$$#g$h$i$j$5$k$l$        ",
"          m$n$o$e#p$q$r$s$t$u$u$v$v$B@w$x$~$y$z$A$B$C$          ",
"            D$E$F$G$H$p$I$J$K$L$M$N$O$P$Q$R$S$T$U$              ",
"                V$W$X$Y$Z$`$ %.%+%@%#%$%%%&%*%=%                ",
"                    -%;%J#>%,%'%)%!%~%{%]%^%                    ",
"                          /%(%_%:%<%[%                          "};
