/* XPM */
static char * codetch_main16_xpm[] = {
"16 16 160 2",
"  	c None",
". 	c #1B1E30",
"+ 	c #1F2136",
"@ 	c #22253A",
"# 	c #1E2135",
"$ 	c #1B1D2F",
"% 	c #1F233C",
"& 	c #303772",
"* 	c #5D6DAC",
"= 	c #7688C2",
"- 	c #6F81BF",
"; 	c #4C5B9E",
"> 	c #2B3168",
", 	c #202339",
"' 	c #1C1F31",
") 	c #212652",
"! 	c #6272AF",
"~ 	c #A3B3D7",
"{ 	c #A1B5DA",
"] 	c #95AED8",
"^ 	c #8EA8D6",
"/ 	c #85A0D2",
"( 	c #7086C1",
"_ 	c #404D8B",
": 	c #1D2140",
"< 	c #1A1D2F",
"[ 	c #1F2447",
"} 	c #6A7CBC",
"| 	c #9DB1D8",
"1 	c #7997CD",
"2 	c #738CC7",
"3 	c #728AC6",
"4 	c #6983C3",
"5 	c #657CBE",
"6 	c #7C88C1",
"7 	c #B6BBD8",
"8 	c #858BAC",
"9 	c #1C1F38",
"0 	c #3D4B93",
"a 	c #87A0D0",
"b 	c #698DCB",
"c 	c #5F7BBF",
"d 	c #DFE1EF",
"e 	c #99A0CD",
"f 	c #B1B7D9",
"g 	c #E9EAF4",
"h 	c #FFFFFF",
"i 	c #A6ACCF",
"j 	c #2B3470",
"k 	c #1C1F32",
"l 	c #1F2452",
"m 	c #627BBD",
"n 	c #5F86C7",
"o 	c #5F87C8",
"p 	c #5573BB",
"q 	c #CFD2E7",
"r 	c #E8E9F3",
"s 	c #9499C9",
"t 	c #9FA4CF",
"u 	c #F4F5F9",
"v 	c #576BB3",
"w 	c #425AAA",
"x 	c #202443",
"y 	c #1C1E30",
"z 	c #1F286A",
"A 	c #5274BC",
"B 	c #5680C5",
"C 	c #5379C0",
"D 	c #4B69B5",
"E 	c #6B76B8",
"F 	c #8187BF",
"G 	c #3D4EA4",
"H 	c #F2F3F9",
"I 	c #9199C9",
"J 	c #395EB2",
"K 	c #3558AE",
"L 	c #1D2459",
"M 	c #1F2A72",
"N 	c #486DBA",
"O 	c #4D74BE",
"P 	c #576EB7",
"Q 	c #CDD3E8",
"R 	c #2E429E",
"S 	c #E3E4F1",
"T 	c #D3D5E9",
"U 	c #172D93",
"V 	c #C6CCE5",
"W 	c #3150A8",
"X 	c #3362B6",
"Y 	c #2B52AB",
"Z 	c #181F5D",
"` 	c #1B1E2F",
" .	c #192368",
"..	c #385EB1",
"+.	c #A9AED5",
"@.	c #C4C7E1",
"#.	c #192F94",
"$.	c #6970B4",
"%.	c #4E5BAA",
"&.	c #284DA8",
"*.	c #325FB4",
"=.	c #3668BA",
"-.	c #2950AA",
";.	c #191F58",
">.	c #1A1C2D",
",.	c #1A2054",
"'.	c #24459F",
").	c #374CA2",
"!.	c #787FBB",
"~.	c #969BCA",
"{.	c #F1F2F8",
"].	c #C3C6E1",
"^.	c #294FA9",
"/.	c #3566B9",
"(.	c #2446A4",
"_.	c #1D2146",
":.	c #1F233B",
"<.	c #172A7A",
"[.	c #B5BAD8",
"}.	c #7B86C0",
"|.	c #878EC4",
"1.	c #D4D7EA",
"2.	c #2A50AA",
"3.	c #315FB6",
"4.	c #18297F",
"5.	c #181A2A",
"6.	c #171C46",
"7.	c #5E6AA4",
"8.	c #7B86BD",
"9.	c #384EA5",
"0.	c #2548A5",
"a.	c #2A52AB",
"b.	c #3659AE",
"c.	c #365BAF",
"d.	c #305EB3",
"e.	c #3363B8",
"f.	c #213D9E",
"g.	c #1C2148",
"h.	c #161827",
"i.	c #171929",
"j.	c #171D4B",
"k.	c #1A3289",
"l.	c #2950A9",
"m.	c #3260B5",
"n.	c #3565B9",
"o.	c #3362B7",
"p.	c #2E5AB3",
"q.	c #1D3594",
"r.	c #1C214A",
"s.	c #1E2240",
"t.	c #161F6A",
"u.	c #1D338E",
"v.	c #2343A6",
"w.	c #2343A7",
"x.	c #1C328D",
"y.	c #171F64",
"z.	c #151725",
"A.	c #0C0D15",
"B.	c #1D1F32",
"C.	c #161826",
"          . + @ @ # $           ",
"      . % & * = - ; > ,         ",
"    ' ) ! ~ { ] ^ / ( _ : <     ",
"    [ } | 1 2 3 4 5 6 7 8 9     ",
"  , 0 a b c d e f g h h i j k   ",
"  l m n o p q r s s t u v w x   ",
"y z A B C D E h F G H I J K L   ",
"' M N O P Q R S T U V W X Y Z $ ",
"`  ...K +.@.#.$.h %.&.*.=.-.;.>.",
"  ,.'.).h !.~.$.{.].^.=./.(._.  ",
"  :.<.[.h h T }.|.1.2.=.3.4.k   ",
"  5.6.7.8.9.0.a.b.c.d.e.f.g.h.  ",
"    i.j.k.l.m./.n.o.p.q.r.5.    ",
"      h.s.t.u.v.w.x.y.% z.      ",
"        A.5.B.% , ' C.          ",
"                                "};
